<?xml version="1.0" encoding="UTF-8" standalone="no"?><!DOCTYPE svg PUBLIC "-//W3C//DTD SVG 1.1//EN" "http://www.w3.org/Graphics/SVG/1.1/DTD/svg11.dtd"><svg width="124" height="124" viewBox="0 0 124 124" version="1.1" xmlns="http://www.w3.org/2000/svg" xmlns:xlink="http://www.w3.org/1999/xlink" xml:space="preserve" xmlns:serif="http://www.serif.com/" style="fill-rule:evenodd;clip-rule:evenodd;stroke-linejoin:round;stroke-miterlimit:2;"><circle cx="62" cy="62" r="62" style="fill:#fff;"/><g><path d="M39.853,54.445c-0.335,0 -0.67,0.008 -1.008,0.026c-10.489,0.55 -18.577,9.532 -18.027,20.022c0.55,10.49 9.537,18.565 20.021,18.027c10.491,-0.55 18.577,-9.531 18.028,-20.021c-0.533,-10.151 -8.963,-18.054 -19.014,-18.054Zm-0.024,42.555c-12.402,0 -22.803,-9.749 -23.459,-22.274c-0.677,-12.942 9.3,-24.024 22.242,-24.703c12.937,-0.679 24.024,9.3 24.703,22.243c0.678,12.942 -9.3,24.023 -22.242,24.702l-0.001,0c-0.416,0.022 -0.831,0.032 -1.243,0.032Z" style="fill:#90ac3e;fill-rule:nonzero;"/><path d="M98.326,83.92c-3.405,3.782 -8.079,6.011 -13.16,6.277c-5.081,0.269 -9.963,-1.462 -13.744,-4.867c-6.128,-5.518 -7.833,-14.14 -4.884,-21.37l1.291,-2.579c0.62,-1.034 1.345,-2.026 2.182,-2.955c7.029,-7.806 19.099,-8.439 26.905,-1.41c7.806,7.029 8.438,19.098 1.41,26.904Zm1.571,-30.215c-7.463,-6.717 -18.079,-7.759 -26.517,-3.41l10.532,-21.035l-0.04,-0.02l1.137,-2.24l-5.08,0.266l0,0l-12.428,0.651l0.233,4.448l9.901,-0.519l-13.702,27.368c-0.547,0.925 -1.02,1.879 -1.428,2.853l-0.136,0.27l0.016,0.008c-3.599,8.905 -1.484,19.505 6.056,26.295c4.353,3.919 9.885,6.038 15.699,6.038c0.418,0 0.838,-0.012 1.259,-0.033c6.269,-0.328 12.036,-3.079 16.237,-7.745c8.672,-9.631 7.892,-24.521 -1.739,-33.195Z" style="fill:#a6ce38;fill-rule:nonzero;"/><path d="M43.525,38.736l0.233,4.447l-14.95,0.784l-2.791,-4.314l17.508,-0.917Z" style="fill:#90ac3e;fill-rule:nonzero;"/></g></svg>