<?xml version="1.0" encoding="UTF-8" standalone="no"?>
<!DOCTYPE svg PUBLIC "-//W3C//DTD SVG 1.1//EN" "http://www.w3.org/Graphics/SVG/1.1/DTD/svg11.dtd">
<svg width="100%" height="100%" viewBox="0 0 700 700" version="1.1" xmlns="http://www.w3.org/2000/svg" xmlns:xlink="http://www.w3.org/1999/xlink" xml:space="preserve" xmlns:serif="http://www.serif.com/" style="fill-rule:evenodd;clip-rule:evenodd;stroke-linejoin:round;stroke-miterlimit:2;">
    <rect x="0" y="0" width="700" height="700" style="fill:white;"/>
    <g>
        <g transform="matrix(1,0,0,1,25.2145,177)">
            <path d="M618.51,240.67C594.04,240.67 584.69,257.43 584.69,257.43C584.69,257.43 575.72,240.64 555.54,240.64C532.44,240.64 522.57,257.16 522.57,257.16L522.6,241.61L496.27,241.61L496.27,344.18L524.62,344.18L524.62,289.01C524.62,289.01 526.2,263.35 544.41,263.35C558.95,263.35 559.53,280.42 559.53,280.42L559.53,344.19L587.74,344.19L587.74,288.99C587.74,269.27 600.26,264 606.83,264C613.76,264 622.16,268.21 622.16,280.55L622.16,344.18L649.86,344.18L649.89,274.39C649.91,274.39 649.91,240.67 618.51,240.67Z" style="fill-rule:nonzero;"/>
        </g>
        <g transform="matrix(1,0,0,1,25.2145,177)">
            <rect x="444.4" y="185.91" width="28.35" height="158.27"/>
        </g>
        <g transform="matrix(1,0,0,1,25.2145,177)">
            <path d="M392.52,241.62L392.52,288C392.52,297.56 392.33,323.2 371.94,323.2C351.41,323.2 353.48,304.72 352.97,295.58L352.97,241.61L324.86,241.61L324.86,310.03C324.86,344.18 354.13,345.62 360.69,345.62C385,345.62 392.78,332.72 394.27,329.71L394.33,330.15L394.25,344.17L420.63,344.17L420.63,241.62L392.52,241.62Z" style="fill-rule:nonzero;"/>
        </g>
    </g>
    <g>
        <g transform="matrix(1,0,0,1,25.2145,177)">
            <path d="M0.22,40.04C2.58,41.68 5.66,42.5 9.46,42.5C12.14,42.5 14.38,41.8 16.18,40.4C17.94,39 18.84,36.84 18.88,33.92C18.84,31.88 17.84,30.16 15.88,28.76C15,28.04 13.98,27.36 12.82,26.72C11.66,26.08 10.48,25.44 9.28,24.8C8.08,24.12 6.92,23.4 5.8,22.64C4.64,21.92 3.6,21.12 2.68,20.24C0.72,18.52 -0.28,16.34 -0.32,13.7C-0.28,10.3 1.02,7.62 3.58,5.66C6.06,3.78 9.18,2.82 12.94,2.78C14.02,2.78 15.3,2.86 16.78,3.02C18.26,3.26 19.72,3.64 21.16,4.16L20.5,7.94C18.46,6.9 15.92,6.38 12.88,6.38C11.8,6.38 10.74,6.48 9.7,6.68C8.66,6.92 7.68,7.34 6.76,7.94C5.92,8.46 5.22,9.18 4.66,10.1C4.1,11.06 3.82,12.22 3.82,13.58C3.82,14.58 4.1,15.5 4.66,16.34C5.22,17.18 5.94,17.92 6.82,18.56C7.74,19.24 8.78,19.88 9.94,20.48C11.06,21.12 12.22,21.78 13.42,22.46C15.94,23.66 18.14,25.18 20.02,27.02C20.94,27.9 21.68,28.94 22.24,30.14C22.76,31.34 23.02,32.72 23.02,34.28C22.94,38.44 21.48,41.46 18.64,43.34C15.84,45.18 12.72,46.1 9.28,46.1C5.2,46.01 2.04,45.37 -0.2,44.18L0.22,40.04Z" style="fill-rule:nonzero;"/>
        </g>
        <g transform="matrix(1,0,0,1,25.2145,177)">
            <path d="M44.74,18.02L37.78,18.02L37.78,37.82C37.78,39.22 38.1,40.4 38.74,41.36C39.34,42.36 40.38,42.86 41.86,42.86C43.22,42.86 44.38,42.62 45.34,42.14L45.58,45.26C45.14,45.42 44.52,45.6 43.72,45.8C42.88,46 41.96,46.1 40.96,46.1C39.32,46.1 38.02,45.82 37.06,45.26C36.14,44.7 35.44,43.96 34.96,43.04C34.56,42.08 34.3,41 34.18,39.8C34.06,38.6 34,37.3 34,35.9L34,18.02L28,18.02L28,14.78L34,14.78L34,7.4L37.78,6.08L37.78,14.78L44.74,14.78L44.74,18.02Z" style="fill-rule:nonzero;"/>
        </g>
        <g transform="matrix(1,0,0,1,25.2145,177)">
            <path d="M69.7,40.46L69.58,40.46C68.7,42.26 67.36,43.64 65.56,44.6C63.76,45.56 61.86,46.06 59.86,46.1C57.74,46.06 56.02,45.72 54.7,45.08C53.34,44.48 52.3,43.72 51.58,42.8C50.3,40.8 49.7,39.02 49.78,37.46C49.78,34.9 50.4,32.88 51.64,31.4C52.84,29.92 54.38,28.86 56.26,28.22C58.14,27.54 60.18,27.1 62.38,26.9C64.54,26.78 66.62,26.72 68.62,26.72L69.34,26.72L69.34,25.16C69.46,19.92 67.14,17.3 62.38,17.3C59.22,17.26 56.22,18.1 53.38,19.82L53.38,16.22C56.22,14.86 59.22,14.14 62.38,14.06C69.62,13.98 73.2,17.78 73.12,25.46L73.12,38.96C73.08,41.28 73.18,43.42 73.42,45.38L69.7,45.38L69.7,40.46ZM69.34,29.96L68.26,29.96C66.62,29.96 64.98,30 63.34,30.08C61.62,30.24 60.06,30.58 58.66,31.1C57.26,31.58 56.14,32.32 55.3,33.32C54.38,34.32 53.92,35.66 53.92,37.34C53.92,39.3 54.56,40.7 55.84,41.54C57.04,42.42 58.52,42.86 60.28,42.86C62.48,42.86 64.22,42.42 65.5,41.54C66.74,40.7 67.64,39.7 68.2,38.54C68.8,37.3 69.14,36.08 69.22,34.88C69.3,33.64 69.34,32.62 69.34,31.82L69.34,29.96Z" style="fill-rule:nonzero;"/>
        </g>
        <g transform="matrix(1,0,0,1,25.2145,177)">
            <path d="M106.96,45.38L103.18,45.38L103.18,40.52L103.06,40.52C101.06,44.28 97.88,46.14 93.52,46.1C89.32,46.02 86.18,44.48 84.1,41.48C81.98,38.48 80.92,34.68 80.92,30.08C80.88,25.32 81.86,21.48 83.86,18.56C85.86,15.6 89.08,14.1 93.52,14.06C95.04,14.06 96.36,14.28 97.48,14.72C98.64,15.16 99.6,15.72 100.36,16.4C101.92,17.8 102.82,18.98 103.06,19.94L103.18,19.94L103.18,0.38L106.96,0.38L106.96,45.38ZM85.06,30.08C85.06,31.52 85.2,32.98 85.48,34.46C85.8,35.98 86.28,37.38 86.92,38.66C87.64,39.86 88.58,40.84 89.74,41.6C90.86,42.44 92.32,42.86 94.12,42.86C95.8,42.86 97.24,42.44 98.44,41.6C99.56,40.84 100.48,39.82 101.2,38.54C102.56,35.82 103.22,33 103.18,30.08C103.18,28.64 103.04,27.16 102.76,25.64C102.44,24.2 101.92,22.84 101.2,21.56C100.48,20.28 99.56,19.24 98.44,18.44C97.24,17.68 95.8,17.3 94.12,17.3C92.32,17.3 90.86,17.68 89.74,18.44C88.58,19.16 87.64,20.16 86.92,21.44C86.28,22.64 85.8,24 85.48,25.52C85.2,27.04 85.06,28.56 85.06,30.08Z" style="fill-rule:nonzero;"/>
        </g>
        <g transform="matrix(1,0,0,1,25.2145,177)">
            <path d="M129.88,18.02L122.92,18.02L122.92,37.82C122.92,39.22 123.24,40.4 123.88,41.36C124.48,42.36 125.52,42.86 127,42.86C128.36,42.86 129.52,42.62 130.48,42.14L130.72,45.26C130.28,45.42 129.66,45.6 128.86,45.8C128.02,46 127.1,46.1 126.1,46.1C124.46,46.1 123.16,45.82 122.2,45.26C121.28,44.7 120.58,43.96 120.1,43.04C119.7,42.08 119.44,41 119.32,39.8C119.2,38.6 119.14,37.3 119.14,35.9L119.14,18.02L113.14,18.02L113.14,14.78L119.14,14.78L119.14,7.4L122.92,6.08L122.92,14.78L129.88,14.78L129.88,18.02Z" style="fill-rule:nonzero;"/>
        </g>
        <g transform="matrix(1,0,0,1,25.2145,177)">
            <path d="M185.02,30.74C184.98,33.78 184.5,36.3 183.58,38.3C182.58,40.34 181.32,41.92 179.8,43.04C178.24,44.16 176.6,44.94 174.88,45.38C173.12,45.86 171.44,46.1 169.84,46.1C168.32,46.1 166.7,45.86 164.98,45.38C163.22,44.94 161.56,44.16 160,43.04C158.48,41.92 157.22,40.34 156.22,38.3C155.18,36.3 154.66,33.78 154.66,30.74L154.66,3.5L158.8,3.5L158.8,30.74C158.8,34.22 159.74,37.02 161.62,39.14C163.5,41.34 166.24,42.46 169.84,42.5C173.52,42.46 176.28,41.34 178.12,39.14C179.96,37.02 180.88,34.22 180.88,30.74L180.88,3.5L185.02,3.5L185.02,30.74Z" style="fill-rule:nonzero;"/>
        </g>
        <g transform="matrix(1,0,0,1,25.2145,177)">
            <rect x="195.16" y="0.38" width="3.78" height="45" style="fill-rule:nonzero;"/>
        </g>
        <g transform="matrix(1,0,0,1,25.2145,177)">
            <path d="M246.04,45.38L246.04,25.04C246.04,23.92 245.96,22.88 245.8,21.92C245.56,21 245.18,20.2 244.66,19.52C244.18,18.8 243.52,18.24 242.68,17.84C241.84,17.48 240.8,17.3 239.56,17.3C237.44,17.3 235.56,18.18 233.92,19.94C232.24,21.78 231.38,24.62 231.34,28.46L231.34,45.38L227.56,45.38L227.56,25.04C227.56,23.92 227.48,22.88 227.32,21.92C227.08,21 226.7,20.2 226.18,19.52C225.7,18.8 225.04,18.24 224.2,17.84C223.36,17.48 222.32,17.3 221.08,17.3C218.96,17.3 217.08,18.18 215.44,19.94C213.76,21.78 212.9,24.62 212.86,28.46L212.86,45.38L209.08,45.38L209.08,21.98C209.08,19.62 209,17.22 208.84,14.78L212.5,14.78L212.5,19.94L212.62,20C212.9,19.44 213.28,18.82 213.76,18.14C214.16,17.46 214.72,16.82 215.44,16.22C216.16,15.62 217.06,15.1 218.14,14.66C219.22,14.26 220.56,14.06 222.16,14.06C222.88,14.06 223.66,14.14 224.5,14.3C225.3,14.46 226.1,14.78 226.9,15.26C227.7,15.7 228.4,16.34 229,17.18C229.6,18.06 230.02,19.18 230.26,20.54L230.38,20.54C231.14,18.7 232.36,17.16 234.04,15.92C235.68,14.72 237.72,14.1 240.16,14.06C243.28,14.1 245.68,15.06 247.36,16.94C249,18.78 249.82,21.24 249.82,24.32L249.82,45.38L246.04,45.38Z" style="fill-rule:nonzero;"/>
        </g>
    </g>
    <g>
        <g transform="matrix(1,0,0,1,25.2145,177)">
            <path d="M0.22,78.24L10.6,78.24C18.04,78.32 23.42,80.26 26.74,84.06C29.98,87.86 31.58,92.88 31.54,99.12C31.46,106.6 29.2,111.98 24.76,115.26C20.36,118.5 14.62,120.12 7.54,120.12L0.22,120.12L0.22,78.24ZM4.36,116.52L7.78,116.52C20.54,116.8 27.08,110.92 27.4,98.88C27.32,92.56 25.68,88.1 22.48,85.5C19.24,83.02 15.22,81.8 10.42,81.84L4.36,81.84L4.36,116.52Z" style="fill-rule:nonzero;"/>
        </g>
        <g transform="matrix(1,0,0,1,25.2145,177)">
            <path d="M43.96,81.36L40.18,81.36L40.18,76.32L43.96,76.32L43.96,81.36ZM40.18,89.52L43.96,89.52L43.96,120.12L40.18,120.12L40.18,89.52Z" style="fill-rule:nonzero;"/>
        </g>
        <g transform="matrix(1,0,0,1,25.2145,177)">
            <path d="M77.79,117.6C77.79,121.96 76.73,125.6 74.6,128.52C72.39,131.48 68.66,133 63.41,133.08C61.4,133.04 59.56,132.82 57.88,132.42C56.24,132.02 54.99,131.7 54.15,131.46L54.45,127.68C56.97,129.04 59.97,129.76 63.45,129.84C65.89,129.8 67.81,129.36 69.21,128.52C70.65,127.72 71.71,126.6 72.39,125.16C73.11,123.72 73.57,122.06 73.77,120.18C73.93,118.3 74.01,116.28 74.01,114.12L73.89,114.12C71.73,118.2 68.63,120.2 64.59,120.12C59.79,120 56.43,118.28 54.51,114.96C53.51,113.44 52.81,111.8 52.41,110.04C51.93,108.28 51.69,106.54 51.69,104.82C51.65,100.06 52.63,96.22 54.63,93.3C56.63,90.34 59.85,88.84 64.29,88.8C66.29,88.8 68.05,89.02 69.57,89.46C71.05,90.02 72.47,91.2 73.83,93L73.95,93L73.95,89.52L77.79,89.52L77.79,117.6ZM55.83,104.82C55.79,107.94 56.47,110.68 57.87,113.04C59.23,115.52 61.49,116.8 64.65,116.88C68.05,116.8 70.47,115.48 71.91,112.92C73.27,110.44 73.95,107.74 73.95,104.82C73.95,101.02 73.31,97.96 72.03,95.64C70.71,93.28 68.33,92.08 64.89,92.04C63.09,92.04 61.63,92.42 60.51,93.18C59.35,93.9 58.41,94.9 57.69,96.18C57.05,97.38 56.57,98.74 56.25,100.26C55.97,101.78 55.83,103.3 55.83,104.82Z" style="fill-rule:nonzero;"/>
        </g>
        <g transform="matrix(1,0,0,1,25.2145,177)">
            <path d="M90.63,81.36L86.85,81.36L86.85,76.32L90.63,76.32L90.63,81.36ZM86.85,89.52L90.63,89.52L90.63,120.12L86.85,120.12L86.85,89.52Z" style="fill-rule:nonzero;"/>
        </g>
        <g transform="matrix(1,0,0,1,25.2145,177)">
            <path d="M113.37,92.76L106.41,92.76L106.41,112.56C106.41,113.96 106.73,115.14 107.37,116.1C107.97,117.1 109.01,117.6 110.49,117.6C111.85,117.6 113.01,117.36 113.97,116.88L114.21,120C113.77,120.16 113.15,120.34 112.35,120.54C111.51,120.74 110.59,120.84 109.59,120.84C107.95,120.84 106.65,120.56 105.69,120C104.77,119.44 104.07,118.7 103.59,117.78C103.19,116.82 102.93,115.74 102.81,114.54C102.69,113.34 102.63,112.04 102.63,110.64L102.63,92.76L96.63,92.76L96.63,89.52L102.63,89.52L102.63,82.14L106.41,80.82L106.41,89.52L113.37,89.52L113.37,92.76Z" style="fill-rule:nonzero;"/>
        </g>
        <g transform="matrix(1,0,0,1,25.2145,177)">
            <path d="M137.73,115.2L137.61,115.2C136.73,117 135.39,118.38 133.59,119.34C131.79,120.3 129.89,120.8 127.89,120.84C125.77,120.8 124.05,120.46 122.73,119.82C121.37,119.22 120.33,118.46 119.61,117.54C118.33,115.54 117.73,113.76 117.81,112.2C117.81,109.64 118.43,107.62 119.67,106.14C120.87,104.66 122.41,103.6 124.29,102.96C126.17,102.28 128.21,101.84 130.41,101.64C132.57,101.52 134.65,101.46 136.65,101.46L137.37,101.46L137.37,99.9C137.49,94.66 135.17,92.04 130.41,92.04C127.25,92 124.25,92.84 121.41,94.56L121.41,90.96C124.25,89.6 127.25,88.88 130.41,88.8C137.65,88.72 141.23,92.52 141.15,100.2L141.15,113.7C141.11,116.02 141.21,118.16 141.45,120.12L137.73,120.12L137.73,115.2ZM137.37,104.7L136.29,104.7C134.65,104.7 133.01,104.74 131.37,104.82C129.65,104.98 128.09,105.32 126.69,105.84C125.29,106.32 124.17,107.06 123.33,108.06C122.41,109.06 121.95,110.4 121.95,112.08C121.95,114.04 122.59,115.44 123.87,116.28C125.07,117.16 126.55,117.6 128.31,117.6C130.51,117.6 132.25,117.16 133.53,116.28C134.77,115.44 135.67,114.44 136.23,113.28C136.83,112.04 137.17,110.82 137.25,109.62C137.33,108.38 137.37,107.36 137.37,106.56L137.37,104.7Z" style="fill-rule:nonzero;"/>
        </g>
        <g transform="matrix(1,0,0,1,25.2145,177)">
            <rect x="150.15" y="75.12" width="3.78" height="45" style="fill-rule:nonzero;"/>
        </g>
        <g transform="matrix(1,0,0,1,25.2145,177)">
            <path d="M183.99,119.16C181.11,120.24 178.15,120.8 175.11,120.84C170.11,120.76 166.53,119.22 164.37,116.22C162.21,113.3 161.15,109.5 161.19,104.82C161.23,100.06 162.43,96.2 164.79,93.24C167.07,90.32 170.17,88.84 174.09,88.8C178.37,88.88 181.49,90.38 183.45,93.3C185.33,96.18 186.27,99.74 186.27,103.98L186.27,105.9L165.33,105.9C165.33,109.22 166.19,111.96 167.91,114.12C169.59,116.4 172.09,117.56 175.41,117.6C176.89,117.6 178.45,117.34 180.09,116.82C181.73,116.38 183.03,115.88 183.99,115.32L183.99,119.16ZM182.13,102.66C182.13,99.86 181.55,97.42 180.39,95.34C179.15,93.22 177.13,92.12 174.33,92.04C171.57,92.12 169.39,93.24 167.79,95.4C166.15,97.56 165.33,99.98 165.33,102.66L182.13,102.66Z" style="fill-rule:nonzero;"/>
        </g>
        <g transform="matrix(1,0,0,1,25.2145,177)">
            <path d="M223.35,78.24L228.03,78.24L244.65,120.12L240.33,120.12L235.83,108.9L214.8,108.9L210.34,120.12L206.2,120.12L223.35,78.24ZM216.34,105.3L234.45,105.3L225.39,82.2L216.34,105.3Z" style="fill-rule:nonzero;"/>
        </g>
        <g transform="matrix(1,0,0,1,25.2145,177)">
            <path d="M274.47,117.6C274.47,121.96 273.41,125.6 271.28,128.52C269.07,131.48 265.34,133 260.09,133.08C258.09,133.04 256.24,132.82 254.56,132.42C252.92,132.02 251.67,131.7 250.83,131.46L251.13,127.68C253.65,129.04 256.65,129.76 260.13,129.84C262.57,129.8 264.49,129.36 265.89,128.52C267.33,127.72 268.39,126.6 269.07,125.16C269.79,123.72 270.25,122.06 270.45,120.18C270.61,118.3 270.69,116.28 270.69,114.12L270.57,114.12C268.41,118.2 265.31,120.2 261.27,120.12C256.47,120 253.11,118.28 251.19,114.96C250.19,113.44 249.49,111.8 249.09,110.04C248.61,108.28 248.37,106.54 248.37,104.82C248.33,100.06 249.31,96.22 251.31,93.3C253.31,90.34 256.53,88.84 260.97,88.8C262.97,88.8 264.73,89.02 266.25,89.46C267.73,90.02 269.15,91.2 270.51,93L270.63,93L270.63,89.52L274.47,89.52L274.47,117.6ZM252.51,104.82C252.47,107.94 253.15,110.68 254.55,113.04C255.91,115.52 258.17,116.8 261.33,116.88C264.73,116.8 267.15,115.48 268.59,112.92C269.95,110.44 270.63,107.74 270.63,104.82C270.63,101.02 269.99,97.96 268.71,95.64C267.39,93.28 265.01,92.08 261.57,92.04C259.77,92.04 258.31,92.42 257.19,93.18C256.03,93.9 255.09,94.9 254.37,96.18C253.73,97.38 253.25,98.74 252.93,100.26C252.65,101.78 252.51,103.3 252.51,104.82Z" style="fill-rule:nonzero;"/>
        </g>
        <g transform="matrix(1,0,0,1,25.2145,177)">
            <path d="M304.05,119.16C301.17,120.24 298.21,120.8 295.17,120.84C290.17,120.76 286.59,119.22 284.43,116.22C282.27,113.3 281.21,109.5 281.25,104.82C281.29,100.06 282.49,96.2 284.85,93.24C287.13,90.32 290.23,88.84 294.15,88.8C298.43,88.88 301.55,90.38 303.51,93.3C305.39,96.18 306.33,99.74 306.33,103.98L306.33,105.9L285.39,105.9C285.39,109.22 286.25,111.96 287.97,114.12C289.65,116.4 292.15,117.56 295.47,117.6C296.95,117.6 298.51,117.34 300.15,116.82C301.79,116.38 303.09,115.88 304.05,115.32L304.05,119.16ZM302.19,102.66C302.19,99.86 301.61,97.42 300.45,95.34C299.21,93.22 297.19,92.12 294.39,92.04C291.63,92.12 289.45,93.24 287.85,95.4C286.21,97.56 285.39,99.98 285.39,102.66L302.19,102.66Z" style="fill-rule:nonzero;"/>
        </g>
        <g transform="matrix(1,0,0,1,25.2145,177)">
            <path d="M313.53,96.72C313.53,94.36 313.45,91.96 313.29,89.52L316.95,89.52L316.95,94.98L317.07,94.98C317.43,94.26 317.85,93.54 318.33,92.82C318.81,92.1 319.41,91.44 320.13,90.84C320.89,90.2 321.83,89.7 322.95,89.34C324.07,88.98 325.41,88.8 326.97,88.8C330.73,88.84 333.43,89.96 335.07,92.16C336.63,94.32 337.41,97.12 337.41,100.56L337.41,120.12L333.63,120.12L333.63,101.52C333.63,98.6 333.09,96.28 332.01,94.56C330.85,92.92 328.97,92.08 326.37,92.04C323.01,92.12 320.65,93.32 319.29,95.64C318.57,96.72 318.07,97.9 317.79,99.18C317.47,100.5 317.31,101.84 317.31,103.2L317.31,120.12L313.53,120.12L313.53,96.72Z" style="fill-rule:nonzero;"/>
        </g>
        <g transform="matrix(1,0,0,1,25.2145,177)">
            <path d="M371.13,120.12L367.35,120.12L367.35,115.26L367.23,115.26C365.23,119.02 362.05,120.88 357.69,120.84C353.49,120.76 350.35,119.22 348.27,116.22C346.15,113.22 345.09,109.42 345.09,104.82C345.05,100.06 346.03,96.22 348.03,93.3C350.03,90.34 353.25,88.84 357.69,88.8C359.21,88.8 360.53,89.02 361.65,89.46C362.81,89.9 363.77,90.46 364.53,91.14C366.09,92.54 366.99,93.72 367.23,94.68L367.35,94.68L367.35,75.12L371.13,75.12L371.13,120.12ZM349.23,104.82C349.23,106.26 349.37,107.72 349.65,109.2C349.97,110.72 350.45,112.12 351.09,113.4C351.81,114.6 352.75,115.58 353.91,116.34C355.03,117.18 356.49,117.6 358.29,117.6C359.97,117.6 361.41,117.18 362.61,116.34C363.73,115.58 364.65,114.56 365.37,113.28C366.73,110.56 367.39,107.74 367.35,104.82C367.35,103.38 367.21,101.9 366.93,100.38C366.61,98.94 366.09,97.58 365.37,96.3C364.65,95.02 363.73,93.98 362.61,93.18C361.41,92.42 359.97,92.04 358.29,92.04C356.49,92.04 355.03,92.42 353.91,93.18C352.75,93.9 351.81,94.9 351.09,96.18C350.45,97.38 349.97,98.74 349.65,100.26C349.37,101.78 349.23,103.3 349.23,104.82Z" style="fill-rule:nonzero;"/>
        </g>
        <g transform="matrix(1,0,0,1,25.2145,177)">
            <path d="M397.83,115.2L397.71,115.2C396.83,117 395.49,118.38 393.69,119.34C391.89,120.3 389.99,120.8 387.99,120.84C385.87,120.8 384.15,120.46 382.83,119.82C381.47,119.22 380.43,118.46 379.71,117.54C378.43,115.54 377.83,113.76 377.91,112.2C377.91,109.64 378.53,107.62 379.77,106.14C380.97,104.66 382.51,103.6 384.39,102.96C386.27,102.28 388.31,101.84 390.51,101.64C392.67,101.52 394.75,101.46 396.75,101.46L397.47,101.46L397.47,99.9C397.59,94.66 395.27,92.04 390.51,92.04C387.35,92 384.35,92.84 381.51,94.56L381.51,90.96C384.35,89.6 387.35,88.88 390.51,88.8C397.75,88.72 401.33,92.52 401.25,100.2L401.25,113.7C401.21,116.02 401.31,118.16 401.55,120.12L397.83,120.12L397.83,115.2ZM397.47,104.7L396.39,104.7C394.75,104.7 393.11,104.74 391.47,104.82C389.75,104.98 388.19,105.32 386.79,105.84C385.39,106.32 384.27,107.06 383.43,108.06C382.51,109.06 382.05,110.4 382.05,112.08C382.05,114.04 382.69,115.44 383.97,116.28C385.17,117.16 386.65,117.6 388.41,117.6C390.61,117.6 392.35,117.16 393.63,116.28C394.87,115.44 395.77,114.44 396.33,113.28C396.93,112.04 397.27,110.82 397.35,109.62C397.43,108.38 397.47,107.36 397.47,106.56L397.47,104.7Z" style="fill-rule:nonzero;"/>
        </g>
    </g>
</svg>
